<svg width="17" height="16" viewBox="0 0 17 16" fill="none" xmlns="http://www.w3.org/2000/svg">
<g id="icn search .icn-xs" clip-path="url(#clip0_3007_12492)">
<path id="Vector" fill-rule="evenodd" clip-rule="evenodd" d="M11.9015 10.3188L16.2053 14.6226C16.3565 14.7739 16.4415 14.9792 16.4414 15.1932C16.4413 15.4072 16.3562 15.6124 16.2049 15.7637C16.0535 15.915 15.8482 15.9999 15.6342 15.9998C15.4202 15.9998 15.215 15.9147 15.0637 15.7633L10.7599 11.4595C9.47335 12.456 7.85548 12.9249 6.23543 12.7709C4.61539 12.6169 3.11486 11.8515 2.03911 10.6304C0.963363 9.40935 0.393196 7.82432 0.444603 6.19779C0.49601 4.57125 1.16513 3.02539 2.31584 1.87468C3.46655 0.723966 5.01241 0.0548478 6.63895 0.00344105C8.26549 -0.0479656 9.85052 0.522201 11.0716 1.59795C12.2927 2.6737 13.0581 4.17422 13.2121 5.79427C13.3661 7.41431 12.8972 9.03219 11.9007 10.3188H11.9015ZM6.8417 11.1995C8.11468 11.1995 9.33553 10.6938 10.2357 9.79369C11.1358 8.89356 11.6415 7.67272 11.6415 6.39974C11.6415 5.12676 11.1358 3.90592 10.2357 3.00579C9.33553 2.10565 8.11468 1.59996 6.8417 1.59996C5.56872 1.59996 4.34788 2.10565 3.44775 3.00579C2.54762 3.90592 2.04193 5.12676 2.04193 6.39974C2.04193 7.67272 2.54762 8.89356 3.44775 9.79369C4.34788 10.6938 5.56872 11.1995 6.8417 11.1995Z" fill="#737373"/>
</g>
<defs>
<clipPath id="clip0_3007_12492">
<rect width="15.9645" height="15.9998" fill="white" transform="translate(0.441406)"/>
</clipPath>
</defs>
</svg>
