<svg width="12" height="12" viewBox="0 0 12 12" fill="none" xmlns="http://www.w3.org/2000/svg">
<g id="icn bxs-star">
<path id="Vector" d="M10.9735 4.58948C10.9421 4.49691 10.8842 4.41557 10.8071 4.35551C10.73 4.29544 10.637 4.25928 10.5395 4.25148L7.68901 4.02498L6.45551 1.29448C6.41623 1.20653 6.35233 1.13184 6.27154 1.07941C6.19074 1.02697 6.09649 0.999046 6.00017 0.998993C5.90386 0.99894 5.80958 1.02676 5.72873 1.07911C5.64787 1.13145 5.58389 1.20608 5.54451 1.29398L4.31101 4.02498L1.46051 4.25148C1.36474 4.25906 1.27318 4.29408 1.19679 4.35234C1.1204 4.4106 1.06241 4.48964 1.02976 4.57999C0.99711 4.67035 0.991182 4.76819 1.01269 4.86183C1.03419 4.95546 1.08221 5.04092 1.15101 5.10798L3.25751 7.16148L2.51251 10.3875C2.48989 10.4851 2.49714 10.5873 2.53332 10.6808C2.5695 10.7743 2.63294 10.8547 2.71541 10.9117C2.79788 10.9687 2.89557 10.9995 2.9958 11.0003C3.09604 11.0011 3.19419 10.9717 3.27751 10.916L6.00001 9.10098L8.72251 10.916C8.80768 10.9725 8.90812 11.0016 9.01033 10.9994C9.11253 10.9972 9.2116 10.9637 9.29421 10.9034C9.37682 10.8432 9.439 10.7591 9.4724 10.6625C9.50579 10.5659 9.5088 10.4614 9.48101 10.363L8.56651 7.16298L10.8345 5.12198C10.983 4.98798 11.0375 4.77898 10.9735 4.58948Z" fill="#F3CD03"/>
</g>
</svg>
