<svg width="12" height="12" viewBox="0 0 12 12" fill="none" xmlns="http://www.w3.org/2000/svg">
<g id="icn bx-star">
<path id="Vector" d="M3.2585 7.16153L2.5135 10.3875C2.49043 10.4852 2.49736 10.5876 2.53337 10.6813C2.56939 10.775 2.63282 10.8556 2.71539 10.9127C2.79795 10.9698 2.89581 11.0006 2.99618 11.0012C3.09655 11.0018 3.19476 10.9721 3.278 10.916L6.0005 9.10103L8.723 10.916C8.80817 10.9726 8.90861 11.0017 9.01082 10.9994C9.11302 10.9972 9.21209 10.9637 9.2947 10.9035C9.37731 10.8433 9.43949 10.7592 9.47289 10.6626C9.50628 10.5659 9.50929 10.4614 9.4815 10.363L8.567 7.16303L10.835 5.12203C10.9076 5.05663 10.9595 4.97136 10.9842 4.87679C11.0089 4.78221 11.0053 4.68247 10.974 4.5899C10.9426 4.49733 10.8847 4.41599 10.8076 4.35594C10.7305 4.29589 10.6374 4.25977 10.54 4.25203L7.6895 4.02503L6.456 1.29453C6.41667 1.20661 6.35273 1.13195 6.27191 1.07956C6.19108 1.02717 6.09682 0.999298 6.0005 0.999298C5.90418 0.999298 5.80992 1.02717 5.7291 1.07956C5.64827 1.13195 5.58433 1.20661 5.545 1.29453L4.3115 4.02503L1.461 4.25153C1.36523 4.25912 1.27367 4.29414 1.19728 4.3524C1.12089 4.41066 1.0629 4.48969 1.03025 4.58005C0.997598 4.6704 0.99167 4.76825 1.01317 4.86188C1.03468 4.95552 1.0827 5.04097 1.1515 5.10803L3.2585 7.16153ZM4.685 4.99853C4.77425 4.9915 4.85996 4.96059 4.93315 4.90904C5.00634 4.85749 5.06432 4.7872 5.101 4.70553L6.0005 2.71503L6.9 4.70553C6.93668 4.7872 6.99466 4.85749 7.06785 4.90904C7.14104 4.96059 7.22675 4.9915 7.316 4.99853L9.302 5.15603L7.6665 6.62803C7.5245 6.75603 7.468 6.95303 7.52 7.13703L8.1465 9.32953L6.2785 8.08403C6.19651 8.029 6.1 7.99961 6.00125 7.99961C5.90251 7.99961 5.80599 8.029 5.724 8.08403L3.772 9.38553L4.297 7.11253C4.31625 7.02893 4.31367 6.94179 4.2895 6.85947C4.26533 6.77716 4.22039 6.70245 4.159 6.64253L2.64 5.16153L4.685 4.99853Z" fill="#F3CD03"/>
</g>
</svg>
